<mxfile host="app.diagrams.net" modified="2024-04-17T09:52:20.850Z" agent="Mozilla/5.0 (Windows NT 10.0; Win64; x64) AppleWebKit/537.36 (KHTML, like Gecko) Chrome/123.0.0.0 Safari/537.36" etag="J3pB2RFv1GZeGtWdE_ce" version="24.0.7" type="github">
  <diagram id="C5RBs43oDa-KdzZeNtuy" name="Page-1">
    <mxGraphModel dx="874" dy="451" grid="1" gridSize="10" guides="1" tooltips="1" connect="1" arrows="1" fold="1" page="1" pageScale="1" pageWidth="827" pageHeight="1169" math="0" shadow="0">
      <root>
        <mxCell id="WIyWlLk6GJQsqaUBKTNV-0" />
        <mxCell id="WIyWlLk6GJQsqaUBKTNV-1" parent="WIyWlLk6GJQsqaUBKTNV-0" />
        <mxCell id="RcMuWe0LuzicDSWimL45-28" style="edgeStyle=orthogonalEdgeStyle;rounded=0;orthogonalLoop=1;jettySize=auto;html=1;exitX=1;exitY=0.5;exitDx=0;exitDy=0;entryX=0;entryY=0.5;entryDx=0;entryDy=0;" edge="1" parent="WIyWlLk6GJQsqaUBKTNV-1" source="WIyWlLk6GJQsqaUBKTNV-3" target="RcMuWe0LuzicDSWimL45-27">
          <mxGeometry relative="1" as="geometry" />
        </mxCell>
        <mxCell id="WIyWlLk6GJQsqaUBKTNV-3" value="待机" style="rounded=1;whiteSpace=wrap;html=1;fontSize=12;glass=0;strokeWidth=1;shadow=0;" parent="WIyWlLk6GJQsqaUBKTNV-1" vertex="1">
          <mxGeometry y="200" width="120" height="40" as="geometry" />
        </mxCell>
        <mxCell id="RcMuWe0LuzicDSWimL45-32" style="edgeStyle=orthogonalEdgeStyle;rounded=0;orthogonalLoop=1;jettySize=auto;html=1;exitX=0.5;exitY=1;exitDx=0;exitDy=0;entryX=0.5;entryY=0;entryDx=0;entryDy=0;" edge="1" parent="WIyWlLk6GJQsqaUBKTNV-1" source="WIyWlLk6GJQsqaUBKTNV-7" target="RcMuWe0LuzicDSWimL45-30">
          <mxGeometry relative="1" as="geometry" />
        </mxCell>
        <mxCell id="RcMuWe0LuzicDSWimL45-35" style="edgeStyle=orthogonalEdgeStyle;rounded=0;orthogonalLoop=1;jettySize=auto;html=1;entryX=0.5;entryY=0;entryDx=0;entryDy=0;" edge="1" parent="WIyWlLk6GJQsqaUBKTNV-1" source="WIyWlLk6GJQsqaUBKTNV-7" target="RcMuWe0LuzicDSWimL45-34">
          <mxGeometry relative="1" as="geometry" />
        </mxCell>
        <mxCell id="WIyWlLk6GJQsqaUBKTNV-7" value="旋转" style="rounded=1;whiteSpace=wrap;html=1;fontSize=12;glass=0;strokeWidth=1;shadow=0;" parent="WIyWlLk6GJQsqaUBKTNV-1" vertex="1">
          <mxGeometry x="460" y="100" width="110" height="40" as="geometry" />
        </mxCell>
        <mxCell id="RcMuWe0LuzicDSWimL45-4" value="" style="edgeStyle=orthogonalEdgeStyle;rounded=0;orthogonalLoop=1;jettySize=auto;html=1;entryX=0.5;entryY=1;entryDx=0;entryDy=0;fontSize=14;fontStyle=1;exitX=1;exitY=0.5;exitDx=0;exitDy=0;" edge="1" parent="WIyWlLk6GJQsqaUBKTNV-1" source="RcMuWe0LuzicDSWimL45-3" target="RcMuWe0LuzicDSWimL45-34">
          <mxGeometry x="0.6067" y="40" relative="1" as="geometry">
            <mxPoint x="550" y="400" as="sourcePoint" />
            <mxPoint x="679.9999999999998" y="235" as="targetPoint" />
            <mxPoint as="offset" />
          </mxGeometry>
        </mxCell>
        <mxCell id="RcMuWe0LuzicDSWimL45-3" value="旋转(禁用)" style="rounded=1;whiteSpace=wrap;html=1;fontSize=12;glass=0;strokeWidth=1;shadow=0;" vertex="1" parent="WIyWlLk6GJQsqaUBKTNV-1">
          <mxGeometry x="460" y="300" width="110" height="40" as="geometry" />
        </mxCell>
        <mxCell id="RcMuWe0LuzicDSWimL45-21" value="No" style="edgeStyle=orthogonalEdgeStyle;rounded=0;orthogonalLoop=1;jettySize=auto;html=1;exitX=0.5;exitY=0;exitDx=0;exitDy=0;entryX=0;entryY=0.5;entryDx=0;entryDy=0;fontSize=14;" edge="1" parent="WIyWlLk6GJQsqaUBKTNV-1" source="RcMuWe0LuzicDSWimL45-8" target="WIyWlLk6GJQsqaUBKTNV-7">
          <mxGeometry x="0.1021" y="-20" relative="1" as="geometry">
            <mxPoint as="offset" />
          </mxGeometry>
        </mxCell>
        <mxCell id="RcMuWe0LuzicDSWimL45-22" value="Yes" style="edgeStyle=orthogonalEdgeStyle;rounded=0;orthogonalLoop=1;jettySize=auto;html=1;exitX=0.5;exitY=1;exitDx=0;exitDy=0;entryX=0;entryY=0.5;entryDx=0;entryDy=0;fontSize=14;" edge="1" parent="WIyWlLk6GJQsqaUBKTNV-1" source="RcMuWe0LuzicDSWimL45-8" target="RcMuWe0LuzicDSWimL45-3">
          <mxGeometry x="0.1478" y="10" relative="1" as="geometry">
            <mxPoint as="offset" />
          </mxGeometry>
        </mxCell>
        <mxCell id="RcMuWe0LuzicDSWimL45-8" value="快速停止" style="rhombus;whiteSpace=wrap;html=1;shadow=0;fontFamily=Helvetica;fontSize=12;align=center;strokeWidth=1;spacing=6;spacingTop=-4;" vertex="1" parent="WIyWlLk6GJQsqaUBKTNV-1">
          <mxGeometry x="314" y="180" width="100" height="80" as="geometry" />
        </mxCell>
        <mxCell id="RcMuWe0LuzicDSWimL45-29" style="edgeStyle=orthogonalEdgeStyle;rounded=0;orthogonalLoop=1;jettySize=auto;html=1;exitX=1;exitY=0.5;exitDx=0;exitDy=0;entryX=0;entryY=0.5;entryDx=0;entryDy=0;" edge="1" parent="WIyWlLk6GJQsqaUBKTNV-1" source="RcMuWe0LuzicDSWimL45-27" target="RcMuWe0LuzicDSWimL45-8">
          <mxGeometry relative="1" as="geometry" />
        </mxCell>
        <mxCell id="RcMuWe0LuzicDSWimL45-27" value="&lt;span style=&quot;text-wrap: nowrap; font-size: 14px; font-weight: 700; background-color: rgb(255, 255, 255);&quot;&gt;被点击&lt;/span&gt;" style="shape=process;whiteSpace=wrap;html=1;backgroundOutline=1;" vertex="1" parent="WIyWlLk6GJQsqaUBKTNV-1">
          <mxGeometry x="160" y="205" width="120" height="30" as="geometry" />
        </mxCell>
        <mxCell id="RcMuWe0LuzicDSWimL45-33" style="edgeStyle=orthogonalEdgeStyle;rounded=0;orthogonalLoop=1;jettySize=auto;html=1;exitX=0.5;exitY=1;exitDx=0;exitDy=0;entryX=0.5;entryY=0;entryDx=0;entryDy=0;" edge="1" parent="WIyWlLk6GJQsqaUBKTNV-1" source="RcMuWe0LuzicDSWimL45-30" target="RcMuWe0LuzicDSWimL45-3">
          <mxGeometry relative="1" as="geometry" />
        </mxCell>
        <mxCell id="RcMuWe0LuzicDSWimL45-30" value="&lt;span style=&quot;font-size: 14px; font-weight: 700; text-wrap: nowrap; background-color: rgb(255, 255, 255);&quot;&gt;再次被点击&lt;/span&gt;" style="shape=process;whiteSpace=wrap;html=1;backgroundOutline=1;" vertex="1" parent="WIyWlLk6GJQsqaUBKTNV-1">
          <mxGeometry x="460" y="205" width="110" height="30" as="geometry" />
        </mxCell>
        <mxCell id="RcMuWe0LuzicDSWimL45-40" style="edgeStyle=orthogonalEdgeStyle;rounded=0;orthogonalLoop=1;jettySize=auto;html=1;exitX=1;exitY=0.5;exitDx=0;exitDy=0;entryX=1;entryY=0.5;entryDx=0;entryDy=0;" edge="1" parent="WIyWlLk6GJQsqaUBKTNV-1" source="RcMuWe0LuzicDSWimL45-34" target="RcMuWe0LuzicDSWimL45-38">
          <mxGeometry relative="1" as="geometry" />
        </mxCell>
        <mxCell id="RcMuWe0LuzicDSWimL45-34" value="&lt;span style=&quot;font-size: 14px; font-weight: 700; text-wrap: nowrap; background-color: rgb(255, 255, 255);&quot;&gt;滚轴结束&lt;/span&gt;" style="shape=process;whiteSpace=wrap;html=1;backgroundOutline=1;" vertex="1" parent="WIyWlLk6GJQsqaUBKTNV-1">
          <mxGeometry x="630" y="200" width="110" height="30" as="geometry" />
        </mxCell>
        <mxCell id="RcMuWe0LuzicDSWimL45-41" style="edgeStyle=orthogonalEdgeStyle;rounded=0;orthogonalLoop=1;jettySize=auto;html=1;entryX=0.5;entryY=1;entryDx=0;entryDy=0;" edge="1" parent="WIyWlLk6GJQsqaUBKTNV-1" source="RcMuWe0LuzicDSWimL45-38" target="WIyWlLk6GJQsqaUBKTNV-3">
          <mxGeometry relative="1" as="geometry" />
        </mxCell>
        <mxCell id="RcMuWe0LuzicDSWimL45-38" value="&lt;span style=&quot;font-size: 14px; font-weight: 700; text-wrap: nowrap; background-color: rgb(255, 255, 255);&quot;&gt;重置&lt;/span&gt;" style="shape=process;whiteSpace=wrap;html=1;backgroundOutline=1;" vertex="1" parent="WIyWlLk6GJQsqaUBKTNV-1">
          <mxGeometry x="309" y="410" width="110" height="30" as="geometry" />
        </mxCell>
      </root>
    </mxGraphModel>
  </diagram>
</mxfile>
